<svg id="SvgjsSvg1001" width="288" height="288" xmlns="http://www.w3.org/2000/svg" version="1.1" xmlns:xlink="http://www.w3.org/1999/xlink" xmlns:svgjs="http://svgjs.com/svgjs"><defs id="SvgjsDefs1002"></defs><g id="SvgjsG1008"><svg xmlns="http://www.w3.org/2000/svg" height="288" viewBox="0 0 139 95" width="288"><defs><linearGradient id="a" x1="100%" x2="50%" y1="10.512%" y2="89.488%"><stop offset="0%" stop-color="#000000" class="stopColor000000 svgShape"></stop><stop offset="100%" stop-color="#3d3dff" class="stopColorFFF svgShape"></stop></linearGradient><linearGradient id="b" x1="64.044%" x2="37.373%" y1="46.328%" y2="100%"><stop offset="0%" stop-color="#ffffff" stop-opacity="0" class="stopColorEEE svgShape"></stop><stop offset="100%" stop-color="#3d3dff" class="stopColorFFF svgShape"></stop></linearGradient></defs><g fill="none" fill-rule="evenodd"><path fill="#7367f0" d="M-5.68434189e-14,2.84217094e-14 L39.1816085,2.84217094e-14 L69.3453773,32.2519224 L101.428699,2.84217094e-14 L138.784583,2.84217094e-14 L138.784199,29.8015838 C137.958931,37.3510206 135.784352,42.5567762 132.260463,45.4188507 C128.736573,48.2809251 112.33867,64.5239941 83.0667527,94.1480575 L56.2750821,94.1480575 L6.71554594,44.4188507 C2.46876683,39.9813776 0.345377275,35.1089553 0.345377275,29.8015838 C0.345377275,24.4942122 0.230251516,14.560351 -5.68434189e-14,2.84217094e-14 Z" class="text-primary colorcurrentcolor svgShape"></path><path fill="url(#a)" d="M69.3453773,32.2519224 L101.428699,1.42108547e-14 L138.784583,1.42108547e-14 L138.784199,29.8015838 C137.958931,37.3510206 135.784352,42.5567762 132.260463,45.4188507 C128.736573,48.2809251 112.33867,64.5239941 83.0667527,94.1480575 L56.2750821,94.1480575 L32.8435758,70.5039241 L69.3453773,32.2519224 Z" opacity=".2"></path><polygon fill="#040000" points="69.392 32.42 32.844 70.504 54.049 16.185" opacity=".05" class="color000 svgShape"></polygon><polygon fill="#040000" points="69.392 32.42 32.844 70.504 58.368 20.74" opacity=".1" class="color000 svgShape"></polygon><polygon fill="url(#b)" points="101.429 0 83.067 94.148 130.379 47.074" opacity=".1"></polygon></g></svg></g></svg>